<mxfile host="65bd71144e">
    <diagram id="t_YeZknYiwymwyTUQgzb" name="Page-1">
        <mxGraphModel dx="1178" dy="1203" grid="1" gridSize="10" guides="1" tooltips="1" connect="1" arrows="1" fold="1" page="1" pageScale="1" pageWidth="827" pageHeight="1169" math="0" shadow="0">
            <root>
                <mxCell id="0"/>
                <mxCell id="1" parent="0"/>
                <mxCell id="3" value="" style="rounded=0;whiteSpace=wrap;html=1;strokeWidth=2;" vertex="1" parent="1">
                    <mxGeometry x="40" y="680" width="680" height="400" as="geometry"/>
                </mxCell>
                <mxCell id="2" value="" style="shape=manualInput;whiteSpace=wrap;html=1;size=160;strokeWidth=2;" vertex="1" parent="1">
                    <mxGeometry x="40" y="800" width="680" height="280" as="geometry"/>
                </mxCell>
                <mxCell id="5" value="children[1]" style="text;html=1;strokeColor=none;fillColor=none;align=center;verticalAlign=middle;whiteSpace=wrap;rounded=0;fontSize=16;" vertex="1" parent="1">
                    <mxGeometry x="50" y="690" width="80" height="40" as="geometry"/>
                </mxCell>
                <mxCell id="7" value="children[0]" style="text;html=1;strokeColor=none;fillColor=none;align=center;verticalAlign=middle;whiteSpace=wrap;rounded=0;fontSize=16;" vertex="1" parent="1">
                    <mxGeometry x="630" y="1030" width="80" height="40" as="geometry"/>
                </mxCell>
                <mxCell id="29" value="" style="group;fontSize=10;" vertex="1" connectable="0" parent="1">
                    <mxGeometry x="150" y="740" width="60" height="178.83999999999992" as="geometry"/>
                </mxCell>
                <mxCell id="9" value="query1" style="text;html=1;strokeColor=none;fillColor=none;align=center;verticalAlign=middle;whiteSpace=wrap;rounded=0;fontSize=12;" vertex="1" parent="29">
                    <mxGeometry width="60" height="30" as="geometry"/>
                </mxCell>
                <mxCell id="21" value="margin1" style="text;html=1;strokeColor=none;fillColor=none;align=center;verticalAlign=middle;whiteSpace=wrap;rounded=0;fontSize=12;rotation=256;" vertex="1" parent="29">
                    <mxGeometry y="90" width="60" height="30" as="geometry"/>
                </mxCell>
                <mxCell id="30" value="" style="group" vertex="1" connectable="0" parent="29">
                    <mxGeometry x="24" y="39" width="34.56" height="139.83999999999992" as="geometry"/>
                </mxCell>
                <mxCell id="8" value="" style="endArrow=oval;html=1;fontSize=16;entryX=0.206;entryY=0.225;entryDx=0;entryDy=0;entryPerimeter=0;exitX=0.26;exitY=0.424;exitDx=0;exitDy=0;exitPerimeter=0;dashed=1;startArrow=none;startFill=0;endFill=1;" edge="1" parent="30" source="2" target="3">
                    <mxGeometry width="50" height="50" relative="1" as="geometry">
                        <mxPoint x="56" y="131" as="sourcePoint"/>
                        <mxPoint x="106" y="81" as="targetPoint"/>
                    </mxGeometry>
                </mxCell>
                <mxCell id="19" value="" style="endArrow=classic;startArrow=classic;html=1;fontSize=12;startSize=1;endSize=1;exitX=0.242;exitY=0.428;exitDx=0;exitDy=0;exitPerimeter=0;" edge="1" parent="30">
                    <mxGeometry width="50" height="50" relative="1" as="geometry">
                        <mxPoint x="34.56" y="139.83999999999992" as="sourcePoint"/>
                        <mxPoint as="targetPoint"/>
                    </mxGeometry>
                </mxCell>
                <mxCell id="35" value="" style="endArrow=oval;html=1;fontSize=16;entryX=0.206;entryY=0.225;entryDx=0;entryDy=0;entryPerimeter=0;exitX=0.582;exitY=0.239;exitDx=0;exitDy=0;exitPerimeter=0;dashed=1;startArrow=none;startFill=0;endFill=1;" edge="1" parent="1" source="2">
                    <mxGeometry width="50" height="50" relative="1" as="geometry">
                        <mxPoint x="400" y="870" as="sourcePoint"/>
                        <mxPoint x="450" y="920" as="targetPoint"/>
                    </mxGeometry>
                </mxCell>
                <mxCell id="32" value="query2" style="text;html=1;strokeColor=none;fillColor=none;align=center;verticalAlign=middle;whiteSpace=wrap;rounded=0;fontSize=12;" vertex="1" parent="1">
                    <mxGeometry x="430" y="918.84" width="60" height="30" as="geometry"/>
                </mxCell>
                <mxCell id="33" value="margin2" style="text;html=1;strokeColor=none;fillColor=none;align=center;verticalAlign=middle;whiteSpace=wrap;rounded=0;fontSize=10;rotation=256;" vertex="1" parent="1">
                    <mxGeometry x="398" y="882" width="60" height="30" as="geometry"/>
                </mxCell>
                <mxCell id="39" value="" style="endArrow=classic;startArrow=classic;html=1;fontSize=12;startSize=1;endSize=1;entryX=0.574;entryY=0.247;entryDx=0;entryDy=0;entryPerimeter=0;" edge="1" parent="1" target="2">
                    <mxGeometry width="50" height="50" relative="1" as="geometry">
                        <mxPoint x="444" y="918.84" as="sourcePoint"/>
                        <mxPoint x="429.56000000000006" y="868.8799999999999" as="targetPoint"/>
                    </mxGeometry>
                </mxCell>
            </root>
        </mxGraphModel>
    </diagram>
</mxfile>